<svg width="40" height="40" viewBox="0 0 40 40" fill="none" xmlns="http://www.w3.org/2000/svg">

 <g>
  <title>Layer 1</title>
  <text font-style="italic" transform="matrix(0.829056 0 0 0.137066 29.1854 26.8404)" stroke="#000" xml:space="preserve" text-anchor="start" font-family="Noto Sans JP" font-size="24" stroke-width="0" id="svg_3" y="36.85148" x="-28.07005" fill="#000000">SF</text>
  <path stroke="#000" id="svg_2" d="m27.83318,5.82155l-3.44671,-1.85989c-0.86962,-0.46879 -2.01549,-0.24316 -2.56343,0.50359l-1.35854,1.85642l6.5937,3.55549l1.35961,-1.85555c0.54587,-0.74764 0.28535,-1.7323 -0.58463,-2.20005l0,0zm-19.1022,16.53871l6.59406,3.55545l10.74722,-14.6884l-6.5972,-3.55638l-10.74409,14.68932l0,0zm-1.00724,4.51734l-0.14564,3.33958l3.44142,-1.56277l3.19806,-1.44969l-6.3615,-3.43223l-0.13234,3.10511l0,0l0,0z" fill="#fff"/>
 </g>
</svg>
